P3
50 25
255
127 127 12 
128 127 12 
130 127 12 
131 127 12 
132 127 12 
133 127 12 
135 127 11 
136 127 11 
137 127 11 
138 127 11 
140 127 11 
141 127 11 
142 127 11 
144 127 11 
145 127 10 
146 127 10 
147 127 10 
149 127 10 
150 127 10 
151 127 10 
153 127 10 
154 127 10 
155 127 9 
156 127 9 
158 127 9 
159 127 9 
160 127 9 
161 127 9 
163 127 9 
164 127 9 
165 127 8 
167 127 8 
168 127 8 
169 127 8 
170 127 8 
172 127 8 
173 127 8 
174 127 8 
175 127 7 
177 127 7 
178 127 7 
179 127 7 
181 127 7 
182 127 7 
183 127 7 
184 127 7 
186 127 6 
187 127 6 
188 127 6 
189 127 6 
127 124 13 
128 124 12 
130 124 12 
131 124 12 
132 124 12 
133 124 12 
135 124 12 
136 124 12 
137 124 11 
138 124 11 
140 124 11 
141 124 11 
142 124 11 
144 124 11 
145 124 11 
146 124 11 
147 124 10 
149 124 10 
150 124 10 
151 124 10 
153 124 10 
154 124 10 
155 124 10 
156 124 10 
158 124 9 
159 124 9 
160 124 9 
161 124 9 
163 124 9 
164 124 9 
165 124 9 
167 124 8 
168 124 8 
169 124 8 
170 124 8 
172 124 8 
173 124 8 
174 124 8 
175 124 8 
177 124 7 
178 124 7 
179 124 7 
181 124 7 
182 124 7 
183 124 7 
184 124 7 
186 124 7 
187 124 6 
188 124 6 
189 124 6 
127 122 13 
128 122 13 
130 122 12 
131 122 12 
132 122 12 
133 122 12 
135 122 12 
136 122 12 
137 122 12 
138 122 12 
140 122 11 
141 122 11 
142 122 11 
144 122 11 
145 122 11 
146 122 11 
147 122 11 
149 122 11 
150 122 10 
151 122 10 
153 122 10 
154 122 10 
155 122 10 
156 122 10 
158 122 10 
159 122 9 
160 122 9 
161 122 9 
163 122 9 
164 122 9 
165 122 9 
167 122 9 
168 122 9 
169 122 8 
170 122 8 
172 122 8 
173 122 8 
174 122 8 
175 122 8 
177 122 8 
178 122 7 
179 122 7 
181 122 7 
182 122 7 
183 122 7 
184 122 7 
186 122 7 
187 122 7 
188 122 6 
189 122 6 
127 119 13 
128 119 13 
130 119 13 
131 119 13 
132 119 12 
133 119 12 
135 119 12 
136 119 12 
137 119 12 
138 119 12 
140 119 12 
141 119 12 
142 119 11 
144 119 11 
145 119 11 
146 119 11 
147 119 11 
149 119 11 
150 119 11 
151 119 10 
153 119 10 
154 119 10 
155 119 10 
156 119 10 
158 119 10 
159 119 10 
160 119 10 
161 119 9 
163 119 9 
164 119 9 
165 119 9 
167 119 9 
168 119 9 
169 119 9 
170 119 8 
172 119 8 
173 119 8 
174 119 8 
175 119 8 
177 119 8 
178 119 8 
179 119 7 
181 119 7 
182 119 7 
183 119 7 
184 119 7 
186 119 7 
187 119 7 
188 119 7 
189 119 6 
127 117 13 
128 117 13 
130 117 13 
131 117 13 
132 117 13 
133 117 13 
135 117 12 
136 117 12 
137 117 12 
138 117 12 
140 117 12 
141 117 12 
142 117 12 
144 117 11 
145 117 11 
146 117 11 
147 117 11 
149 117 11 
150 117 11 
151 117 11 
153 117 11 
154 117 10 
155 117 10 
156 117 10 
158 117 10 
159 117 10 
160 117 10 
161 117 10 
163 117 9 
164 117 9 
165 117 9 
167 117 9 
168 117 9 
169 117 9 
170 117 9 
172 117 8 
173 117 8 
174 117 8 
175 117 8 
177 117 8 
178 117 8 
179 117 8 
181 117 7 
182 117 7 
183 117 7 
184 117 7 
186 117 7 
187 117 7 
188 117 7 
189 117 7 
127 114 14 
128 114 13 
130 114 13 
131 114 13 
132 114 13 
133 114 13 
135 114 13 
136 114 13 
137 114 12 
138 114 12 
140 114 12 
141 114 12 
142 114 12 
144 114 12 
145 114 12 
146 114 11 
147 114 11 
149 114 11 
150 114 11 
151 114 11 
153 114 11 
154 114 11 
155 114 10 
156 114 10 
158 114 10 
159 114 10 
160 114 10 
161 114 10 
163 114 10 
164 114 9 
165 114 9 
167 114 9 
168 114 9 
169 114 9 
170 114 9 
172 114 9 
173 114 8 
174 114 8 
175 114 8 
177 114 8 
178 114 8 
179 114 8 
181 114 8 
182 114 7 
183 114 7 
184 114 7 
186 114 7 
187 114 7 
188 114 7 
189 114 7 
127 112 14 
128 112 14 
130 112 13 
131 112 13 
132 112 13 
133 112 13 
135 112 13 
136 112 13 
137 112 13 
138 112 12 
140 112 12 
141 112 12 
142 112 12 
144 112 12 
145 112 12 
146 112 12 
147 112 11 
149 112 11 
150 112 11 
151 112 11 
153 112 11 
154 112 11 
155 112 11 
156 112 10 
158 112 10 
159 112 10 
160 112 10 
161 112 10 
163 112 10 
164 112 10 
165 112 9 
167 112 9 
168 112 9 
169 112 9 
170 112 9 
172 112 9 
173 112 9 
174 112 8 
175 112 8 
177 112 8 
178 112 8 
179 112 8 
181 112 8 
182 112 8 
183 112 7 
184 112 7 
186 112 7 
187 112 7 
188 112 7 
189 112 7 
127 109 14 
128 109 14 
130 109 14 
131 109 14 
132 109 13 
133 109 13 
135 109 13 
136 109 13 
137 109 13 
138 109 13 
140 109 13 
141 109 12 
142 109 12 
144 109 12 
145 109 12 
146 109 12 
147 109 12 
149 109 12 
150 109 11 
151 109 11 
153 109 11 
154 109 11 
155 109 11 
156 109 11 
158 109 11 
159 109 10 
160 109 10 
161 109 10 
163 109 10 
164 109 10 
165 109 10 
167 109 10 
168 109 9 
169 109 9 
170 109 9 
172 109 9 
173 109 9 
174 109 9 
175 109 9 
177 109 8 
178 109 8 
179 109 8 
181 109 8 
182 109 8 
183 109 8 
184 109 7 
186 109 7 
187 109 7 
188 109 7 
189 109 7 
127 107 14 
128 107 14 
130 107 14 
131 107 14 
132 107 14 
133 107 14 
135 107 13 
136 107 13 
137 107 13 
138 107 13 
140 107 13 
141 107 13 
142 107 13 
144 107 12 
145 107 12 
146 107 12 
147 107 12 
149 107 12 
150 107 12 
151 107 11 
153 107 11 
154 107 11 
155 107 11 
156 107 11 
158 107 11 
159 107 11 
160 107 10 
161 107 10 
163 107 10 
164 107 10 
165 107 10 
167 107 10 
168 107 10 
169 107 9 
170 107 9 
172 107 9 
173 107 9 
174 107 9 
175 107 9 
177 107 9 
178 107 8 
179 107 8 
181 107 8 
182 107 8 
183 107 8 
184 107 8 
186 107 7 
187 107 7 
188 107 7 
189 107 7 
127 104 15 
128 104 14 
130 104 14 
131 104 14 
132 104 14 
133 104 14 
135 104 14 
136 104 13 
137 104 13 
138 104 13 
140 104 13 
141 104 13 
142 104 13 
144 104 13 
145 104 12 
146 104 12 
147 104 12 
149 104 12 
150 104 12 
151 104 12 
153 104 12 
154 104 11 
155 104 11 
156 104 11 
158 104 11 
159 104 11 
160 104 11 
161 104 10 
163 104 10 
164 104 10 
165 104 10 
167 104 10 
168 104 10 
169 104 10 
170 104 9 
172 104 9 
173 104 9 
174 104 9 
175 104 9 
177 104 9 
178 104 9 
179 104 8 
181 104 8 
182 104 8 
183 104 8 
184 104 8 
186 104 8 
187 104 7 
188 104 7 
189 104 7 
127 101 15 
128 101 15 
130 101 14 
131 101 14 
132 101 14 
133 101 14 
135 101 14 
136 101 14 
137 101 14 
138 101 13 
140 101 13 
141 101 13 
142 101 13 
144 101 13 
145 101 13 
146 101 13 
147 101 12 
149 101 12 
150 101 12 
151 101 12 
153 101 12 
154 101 12 
155 101 11 
156 101 11 
158 101 11 
159 101 11 
160 101 11 
161 101 11 
163 101 11 
164 101 10 
165 101 10 
167 101 10 
168 101 10 
169 101 10 
170 101 10 
172 101 9 
173 101 9 
174 101 9 
175 101 9 
177 101 9 
178 101 9 
179 101 9 
181 101 8 
182 101 8 
183 101 8 
184 101 8 
186 101 8 
187 101 8 
188 101 7 
189 101 7 
127 99 15 
128 99 15 
130 99 15 
131 99 15 
132 99 14 
133 99 14 
135 99 14 
136 99 14 
137 99 14 
138 99 14 
140 99 13 
141 99 13 
142 99 13 
144 99 13 
145 99 13 
146 99 13 
147 99 13 
149 99 12 
150 99 12 
151 99 12 
153 99 12 
154 99 12 
155 99 12 
156 99 11 
158 99 11 
159 99 11 
160 99 11 
161 99 11 
163 99 11 
164 99 11 
165 99 10 
167 99 10 
168 99 10 
169 99 10 
170 99 10 
172 99 10 
173 99 9 
174 99 9 
175 99 9 
177 99 9 
178 99 9 
179 99 9 
181 99 9 
182 99 8 
183 99 8 
184 99 8 
186 99 8 
187 99 8 
188 99 8 
189 99 7 
127 96 15 
128 96 15 
130 96 15 
131 96 15 
132 96 15 
133 96 15 
135 96 14 
136 96 14 
137 96 14 
138 96 14 
140 96 14 
141 96 14 
142 96 13 
144 96 13 
145 96 13 
146 96 13 
147 96 13 
149 96 13 
150 96 12 
151 96 12 
153 96 12 
154 96 12 
155 96 12 
156 96 12 
158 96 12 
159 96 11 
160 96 11 
161 96 11 
163 96 11 
164 96 11 
165 96 11 
167 96 10 
168 96 10 
169 96 10 
170 96 10 
172 96 10 
173 96 10 
174 96 9 
175 96 9 
177 96 9 
178 96 9 
179 96 9 
181 96 9 
182 96 9 
183 96 8 
184 96 8 
186 96 8 
187 96 8 
188 96 8 
189 96 8 
127 94 16 
128 94 15 
130 94 15 
131 94 15 
132 94 15 
133 94 15 
135 94 15 
136 94 14 
137 94 14 
138 94 14 
140 94 14 
141 94 14 
142 94 14 
144 94 13 
145 94 13 
146 94 13 
147 94 13 
149 94 13 
150 94 13 
151 94 13 
153 94 12 
154 94 12 
155 94 12 
156 94 12 
158 94 12 
159 94 12 
160 94 11 
161 94 11 
163 94 11 
164 94 11 
165 94 11 
167 94 11 
168 94 10 
169 94 10 
170 94 10 
172 94 10 
173 94 10 
174 94 10 
175 94 9 
177 94 9 
178 94 9 
179 94 9 
181 94 9 
182 94 9 
183 94 8 
184 94 8 
186 94 8 
187 94 8 
188 94 8 
189 94 8 
127 91 16 
128 91 16 
130 91 15 
131 91 15 
132 91 15 
133 91 15 
135 91 15 
136 91 15 
137 91 15 
138 91 14 
140 91 14 
141 91 14 
142 91 14 
144 91 14 
145 91 14 
146 91 13 
147 91 13 
149 91 13 
150 91 13 
151 91 13 
153 91 13 
154 91 12 
155 91 12 
156 91 12 
158 91 12 
159 91 12 
160 91 12 
161 91 11 
163 91 11 
164 91 11 
165 91 11 
167 91 11 
168 91 11 
169 91 10 
170 91 10 
172 91 10 
173 91 10 
174 91 10 
175 91 10 
177 91 9 
178 91 9 
179 91 9 
181 91 9 
182 91 9 
183 91 9 
184 91 8 
186 91 8 
187 91 8 
188 91 8 
189 91 8 
127 89 16 
128 89 16 
130 89 16 
131 89 16 
132 89 15 
133 89 15 
135 89 15 
136 89 15 
137 89 15 
138 89 15 
140 89 14 
141 89 14 
142 89 14 
144 89 14 
145 89 14 
146 89 14 
147 89 13 
149 89 13 
150 89 13 
151 89 13 
153 89 13 
154 89 13 
155 89 12 
156 89 12 
158 89 12 
159 89 12 
160 89 12 
161 89 12 
163 89 11 
164 89 11 
165 89 11 
167 89 11 
168 89 11 
169 89 11 
170 89 10 
172 89 10 
173 89 10 
174 89 10 
175 89 10 
177 89 10 
178 89 9 
179 89 9 
181 89 9 
182 89 9 
183 89 9 
184 89 9 
186 89 8 
187 89 8 
188 89 8 
189 89 8 
127 86 16 
128 86 16 
130 86 16 
131 86 16 
132 86 16 
133 86 15 
135 86 15 
136 86 15 
137 86 15 
138 86 15 
140 86 15 
141 86 14 
142 86 14 
144 86 14 
145 86 14 
146 86 14 
147 86 14 
149 86 13 
150 86 13 
151 86 13 
153 86 13 
154 86 13 
155 86 13 
156 86 12 
158 86 12 
159 86 12 
160 86 12 
161 86 12 
163 86 12 
164 86 11 
165 86 11 
167 86 11 
168 86 11 
169 86 11 
170 86 11 
172 86 10 
173 86 10 
174 86 10 
175 86 10 
177 86 10 
178 86 10 
179 86 9 
181 86 9 
182 86 9 
183 86 9 
184 86 9 
186 86 9 
187 86 8 
188 86 8 
189 86 8 
127 84 17 
128 84 16 
130 84 16 
131 84 16 
132 84 16 
133 84 16 
135 84 16 
136 84 15 
137 84 15 
138 84 15 
140 84 15 
141 84 15 
142 84 15 
144 84 14 
145 84 14 
146 84 14 
147 84 14 
149 84 14 
150 84 14 
151 84 13 
153 84 13 
154 84 13 
155 84 13 
156 84 13 
158 84 12 
159 84 12 
160 84 12 
161 84 12 
163 84 12 
164 84 12 
165 84 11 
167 84 11 
168 84 11 
169 84 11 
170 84 11 
172 84 11 
173 84 10 
174 84 10 
175 84 10 
177 84 10 
178 84 10 
179 84 10 
181 84 9 
182 84 9 
183 84 9 
184 84 9 
186 84 9 
187 84 9 
188 84 8 
189 84 8 
127 81 17 
128 81 17 
130 81 16 
131 81 16 
132 81 16 
133 81 16 
135 81 16 
136 81 16 
137 81 15 
138 81 15 
140 81 15 
141 81 15 
142 81 15 
144 81 15 
145 81 14 
146 81 14 
147 81 14 
149 81 14 
150 81 14 
151 81 14 
153 81 13 
154 81 13 
155 81 13 
156 81 13 
158 81 13 
159 81 13 
160 81 12 
161 81 12 
163 81 12 
164 81 12 
165 81 12 
167 81 11 
168 81 11 
169 81 11 
170 81 11 
172 81 11 
173 81 11 
174 81 10 
175 81 10 
177 81 10 
178 81 10 
179 81 10 
181 81 10 
182 81 9 
183 81 9 
184 81 9 
186 81 9 
187 81 9 
188 81 9 
189 81 8 
127 79 17 
128 79 17 
130 79 17 
131 79 17 
132 79 16 
133 79 16 
135 79 16 
136 79 16 
137 79 16 
138 79 16 
140 79 15 
141 79 15 
142 79 15 
144 79 15 
145 79 15 
146 79 14 
147 79 14 
149 79 14 
150 79 14 
151 79 14 
153 79 14 
154 79 13 
155 79 13 
156 79 13 
158 79 13 
159 79 13 
160 79 13 
161 79 12 
163 79 12 
164 79 12 
165 79 12 
167 79 12 
168 79 11 
169 79 11 
170 79 11 
172 79 11 
173 79 11 
174 79 11 
175 79 10 
177 79 10 
178 79 10 
179 79 10 
181 79 10 
182 79 10 
183 79 9 
184 79 9 
186 79 9 
187 79 9 
188 79 9 
189 79 8 
127 76 17 
128 76 17 
130 76 17 
131 76 17 
132 76 17 
133 76 16 
135 76 16 
136 76 16 
137 76 16 
138 76 16 
140 76 16 
141 76 15 
142 76 15 
144 76 15 
145 76 15 
146 76 15 
147 76 14 
149 76 14 
150 76 14 
151 76 14 
153 76 14 
154 76 14 
155 76 13 
156 76 13 
158 76 13 
159 76 13 
160 76 13 
161 76 13 
163 76 12 
164 76 12 
165 76 12 
167 76 12 
168 76 12 
169 76 11 
170 76 11 
172 76 11 
173 76 11 
174 76 11 
175 76 11 
177 76 10 
178 76 10 
179 76 10 
181 76 10 
182 76 10 
183 76 9 
184 76 9 
186 76 9 
187 76 9 
188 76 9 
189 76 9 
127 73 18 
128 73 17 
130 73 17 
131 73 17 
132 73 17 
133 73 17 
135 73 17 
136 73 16 
137 73 16 
138 73 16 
140 73 16 
141 73 16 
142 73 15 
144 73 15 
145 73 15 
146 73 15 
147 73 15 
149 73 15 
150 73 14 
151 73 14 
153 73 14 
154 73 14 
155 73 14 
156 73 13 
158 73 13 
159 73 13 
160 73 13 
161 73 13 
163 73 13 
164 73 12 
165 73 12 
167 73 12 
168 73 12 
169 73 12 
170 73 11 
172 73 11 
173 73 11 
174 73 11 
175 73 11 
177 73 11 
178 73 10 
179 73 10 
181 73 10 
182 73 10 
183 73 10 
184 73 9 
186 73 9 
187 73 9 
188 73 9 
189 73 9 
127 71 18 
128 71 18 
130 71 17 
131 71 17 
132 71 17 
133 71 17 
135 71 17 
136 71 17 
137 71 16 
138 71 16 
140 71 16 
141 71 16 
142 71 16 
144 71 15 
145 71 15 
146 71 15 
147 71 15 
149 71 15 
150 71 15 
151 71 14 
153 71 14 
154 71 14 
155 71 14 
156 71 14 
158 71 13 
159 71 13 
160 71 13 
161 71 13 
163 71 13 
164 71 13 
165 71 12 
167 71 12 
168 71 12 
169 71 12 
170 71 12 
172 71 11 
173 71 11 
174 71 11 
175 71 11 
177 71 11 
178 71 11 
179 71 10 
181 71 10 
182 71 10 
183 71 10 
184 71 10 
186 71 9 
187 71 9 
188 71 9 
189 71 9 
127 68 18 
128 68 18 
130 68 18 
131 68 18 
132 68 17 
133 68 17 
135 68 17 
136 68 17 
137 68 17 
138 68 16 
140 68 16 
141 68 16 
142 68 16 
144 68 16 
145 68 16 
146 68 15 
147 68 15 
149 68 15 
150 68 15 
151 68 15 
153 68 14 
154 68 14 
155 68 14 
156 68 14 
158 68 14 
159 68 13 
160 68 13 
161 68 13 
163 68 13 
164 68 13 
165 68 13 
167 68 12 
168 68 12 
169 68 12 
170 68 12 
172 68 12 
173 68 11 
174 68 11 
175 68 11 
177 68 11 
178 68 11 
179 68 10 
181 68 10 
182 68 10 
183 68 10 
184 68 10 
186 68 10 
187 68 9 
188 68 9 
189 68 9 
127 66 18 
128 66 18 
130 66 18 
131 66 18 
132 66 18 
133 66 17 
135 66 17 
136 66 17 
137 66 17 
138 66 17 
140 66 16 
141 66 16 
142 66 16 
144 66 16 
145 66 16 
146 66 16 
147 66 15 
149 66 15 
150 66 15 
151 66 15 
153 66 15 
154 66 14 
155 66 14 
156 66 14 
158 66 14 
159 66 14 
160 66 13 
161 66 13 
163 66 13 
164 66 13 
165 66 13 
167 66 13 
168 66 12 
169 66 12 
170 66 12 
172 66 12 
173 66 12 
174 66 11 
175 66 11 
177 66 11 
178 66 11 
179 66 11 
181 66 10 
182 66 10 
183 66 10 
184 66 10 
186 66 10 
187 66 10 
188 66 9 
189 66 9 
